<svg width="444" height="461" viewBox="0 0 444 461" fill="none" xmlns="http://www.w3.org/2000/svg">
<g opacity="0.5">
<path d="M-268.319 204.459C-217.328 267.009 -78.1053 383.665 70.8532 349.887C257.051 307.664 312.619 206.071 334.321 151.548C351.684 107.929 372.644 26.1368 380.953 -9.30695" stroke="#807F7F"/>
<path d="M-270.215 196.581C-219.224 259.131 -80.0018 375.787 68.9567 342.009C255.155 299.786 310.722 198.193 332.425 143.669C349.787 100.051 370.747 18.2584 379.057 -17.1854" stroke="#807F7F"/>
<path d="M-272.112 188.702C-221.12 251.252 -81.8983 367.908 67.0603 334.13C253.258 291.908 308.826 190.315 330.528 135.791C347.891 92.1721 368.851 10.3799 377.16 -25.0638" stroke="#807F7F"/>
<path d="M-274.006 180.824C-223.015 243.374 -83.7928 360.03 65.1658 326.252C251.364 284.029 306.931 182.436 328.634 127.913C345.996 84.2937 366.956 2.50152 375.266 -32.9422" stroke="#807F7F"/>
<path d="M-275.901 172.946C-224.91 235.496 -85.6873 352.152 63.2712 318.374C249.469 276.151 305.036 174.558 326.739 120.035C344.102 76.4158 365.062 -5.37641 373.371 -40.8201" stroke="#807F7F"/>
<path d="M-277.797 165.067C-226.806 227.618 -87.5838 344.273 61.3747 310.495C247.573 268.273 303.14 166.68 324.843 112.156C342.205 68.5373 363.165 -13.2548 371.475 -48.6985" stroke="#807F7F"/>
<path d="M-279.692 157.19C-228.701 219.74 -89.4784 336.395 59.4802 302.617C245.678 260.395 301.245 158.802 322.948 104.278C340.311 60.6594 361.271 -21.1328 369.58 -56.5765" stroke="#807F7F"/>
<path d="M-281.586 149.311C-230.595 211.861 -91.3729 328.517 57.5857 294.739C243.784 252.516 299.351 150.923 321.054 96.3998C338.416 52.781 359.376 -29.0112 367.686 -64.4549" stroke="#807F7F"/>
<path d="M-283.483 141.433C-232.492 203.983 -93.2694 320.639 55.6892 286.861C241.887 244.638 297.454 143.045 319.157 88.5214C336.52 44.9026 357.48 -36.8896 365.789 -72.3333" stroke="#807F7F"/>
<path d="M-285.379 133.554C-234.388 196.104 -95.1659 312.76 53.7927 278.982C239.991 236.76 295.558 135.167 317.261 80.643C334.623 37.0242 355.583 -44.768 363.893 -80.2117" stroke="#807F7F"/>
<path d="M-287.274 125.676C-236.282 188.226 -97.0603 304.882 51.8983 271.104C238.096 228.882 293.664 127.289 315.366 72.7651C332.729 29.1462 353.689 -52.6459 361.998 -88.0897" stroke="#807F7F"/>
<path d="M-289.168 117.798C-238.177 180.348 -98.9549 297.004 50.0036 263.226C236.202 221.003 291.769 119.41 313.472 64.8867C330.834 21.2678 351.794 -60.5244 360.104 -95.9681" stroke="#807F7F"/>
<path d="M-291.065 109.92C-240.074 172.47 -100.851 289.125 48.1071 255.347C234.305 213.125 289.872 111.532 311.575 57.0082C328.938 13.3894 349.898 -68.4028 358.207 -103.846" stroke="#807F7F"/>
<path d="M-292.959 102.042C-241.968 164.592 -102.746 281.247 46.2126 247.469C232.411 205.247 287.978 103.654 309.681 49.1303C327.043 5.51146 348.003 -76.2807 356.313 -111.724" stroke="#807F7F"/>
<path d="M-294.854 94.1632C-243.863 156.713 -104.64 273.369 44.3181 239.591C230.516 197.368 286.083 95.7755 307.786 41.2519C325.149 -2.36695 346.109 -84.1591 354.418 -119.603" stroke="#807F7F"/>
<path d="M-296.75 86.2853C-245.759 148.835 -106.537 265.491 42.4216 231.713C228.62 189.491 284.187 87.8975 305.89 33.374C323.252 -10.2449 344.212 -92.0371 352.522 -127.481" stroke="#807F7F"/>
<path d="M-298.647 78.4064C-247.656 140.956 -108.433 257.612 40.5251 223.834C226.723 181.612 282.29 80.0186 303.993 25.4951C321.356 -18.1238 342.316 -99.916 350.625 -135.36" stroke="#807F7F"/>
<path d="M-300.541 70.5284C-249.55 133.079 -110.328 249.734 38.6306 215.956C224.829 173.734 280.396 72.1407 302.099 17.6171C319.461 -26.0017 340.421 -107.794 348.731 -143.238" stroke="#807F7F"/>
</g>
</svg>
