<svg width="317" height="219" viewBox="0 0 317 219" fill="none" xmlns="http://www.w3.org/2000/svg">
<g opacity="0.28">
<path d="M40.8159 178.789C31.5168 199.027 39.4233 217.978 43.1078 227.548C45.2253 229.769 45.1784 229.265 46.0659 230.135C47.1752 231.222 52.3952 231.929 55.0111 238.049C57.6271 244.169 59.242 244.087 58.1892 261.452C57.1364 278.818 60.3419 297.331 72.0007 313.853C83.6596 330.375 101.788 337.09 119.26 339.696C136.733 342.303 156.355 333.42 169.438 292.448C182.52 251.475 228.925 287.09 250.435 269.089C271.946 251.088 263.044 214.638 262.271 198.765C261.497 182.892 236.304 120.596 212.628 90.2484C188.953 59.9008 172.572 81.0889 165.553 94.2427C158.534 107.396 174.485 139.589 176.128 160.037C177.77 180.484 149.416 182.856 131.132 168.708C112.847 154.561 100.121 139.184 84.3171 142.099C68.5135 145.013 52.4397 153.492 40.8159 178.789Z" stroke="#807F7F" stroke-width="0.5"/>
<path d="M45.9396 177.559C36.6405 197.796 44.547 216.748 48.2315 226.318C50.349 228.539 50.3021 228.035 51.1896 228.905C52.299 229.992 57.5189 230.699 60.1349 236.819C62.7508 242.939 64.3658 242.856 63.3129 260.222C62.2601 277.588 65.4656 296.101 77.1245 312.623C88.7833 329.145 106.911 335.86 124.384 338.466C141.856 341.072 161.479 332.19 174.562 291.217C187.644 250.245 234.049 285.859 255.559 267.859C277.07 249.858 268.168 213.408 267.394 197.535C266.62 181.661 241.427 119.366 217.752 89.0181C194.076 58.6706 177.696 79.8587 170.677 93.0125C163.658 106.166 179.609 138.359 181.252 158.807C182.894 179.254 154.54 181.626 136.255 167.478C117.971 153.33 105.245 137.954 89.4409 140.868C73.6372 143.783 57.5635 152.262 45.9396 177.559Z" stroke="#807F7F" stroke-width="0.5"/>
<path d="M51.0634 176.329C41.7643 196.566 49.6708 215.517 53.3553 225.088C55.4728 227.308 55.4259 226.805 56.3134 227.674C57.4228 228.761 62.6427 229.469 65.2586 235.589C67.8746 241.708 69.4895 241.626 68.4367 258.992C67.3839 276.357 70.5894 294.87 82.2482 311.392C93.9071 327.914 112.035 334.629 129.508 337.236C146.98 339.842 166.603 330.959 179.685 289.987C192.768 249.015 239.173 284.629 260.683 266.628C282.193 248.628 273.292 212.178 272.518 196.305C271.744 180.431 246.551 118.135 222.876 87.7879C199.2 57.4403 182.82 78.6284 175.801 91.7822C168.782 104.936 184.733 137.129 186.375 157.576C188.018 178.024 159.663 180.395 141.379 166.248C123.095 152.1 110.368 136.723 94.5647 139.638C78.761 142.553 62.6872 151.032 51.0634 176.329Z" stroke="#807F7F" stroke-width="0.5"/>
<path d="M56.1871 175.098C46.888 195.336 54.7946 214.287 58.4791 223.858C60.5965 226.078 60.5497 225.574 61.4372 226.444C62.5465 227.531 67.7665 228.239 70.3824 234.358C72.9983 240.478 74.6133 240.396 73.5605 257.762C72.5076 275.127 75.7131 293.64 87.372 310.162C99.0308 326.684 117.159 333.399 134.631 336.005C152.104 338.612 171.726 329.729 184.809 288.757C197.892 247.785 244.296 283.399 265.807 265.398C287.317 247.397 278.416 210.948 277.642 195.074C276.868 179.201 251.675 116.905 227.999 86.5576C204.324 56.2101 187.944 77.3982 180.925 90.552C173.906 103.706 189.857 135.899 191.499 156.346C193.141 176.794 164.787 179.165 146.503 165.018C128.218 150.87 115.492 135.493 99.6884 138.408C83.8847 141.323 67.811 149.801 56.1871 175.098Z" stroke="#807F7F" stroke-width="0.5"/>
<path d="M61.3109 173.868C52.0118 194.105 59.9183 213.057 63.6028 222.627C65.7203 224.848 65.6734 224.344 66.5609 225.214C67.6703 226.301 72.8902 227.008 75.5062 233.128C78.1221 239.248 79.7371 239.165 78.6842 256.531C77.6314 273.897 80.8369 292.41 92.4958 308.932C104.155 325.454 122.283 332.169 139.755 334.775C157.228 337.381 176.85 328.499 189.933 287.526C203.016 246.554 249.42 282.168 270.931 264.168C292.441 246.167 283.539 209.717 282.766 193.844C281.992 177.97 256.799 115.675 233.123 85.3272C209.448 54.9796 193.068 76.1677 186.048 89.3215C179.029 102.475 194.981 134.668 196.623 155.116C198.265 175.563 169.911 177.935 151.627 163.787C133.342 149.64 120.616 134.263 104.812 137.177C89.0085 140.092 72.9348 148.571 61.3109 173.868Z" stroke="#807F7F" stroke-width="0.5"/>
<path d="M66.4347 172.638C57.1356 192.875 65.0421 211.827 68.7266 221.397C70.8441 223.618 70.7972 223.114 71.6847 223.984C72.794 225.071 78.014 225.778 80.6299 231.898C83.2459 238.018 84.8608 237.935 83.808 255.301C82.7552 272.667 85.9607 291.18 97.6195 307.702C109.278 324.224 127.406 330.939 144.879 333.545C162.352 336.151 181.974 327.269 195.057 286.296C208.139 245.324 254.544 280.938 276.054 262.938C297.565 244.937 288.663 208.487 287.889 192.614C287.115 176.74 261.922 114.445 238.247 84.0972C214.571 53.7496 198.191 74.9377 191.172 88.0915C184.153 101.245 200.104 133.438 201.747 153.886C203.389 174.333 175.035 176.705 156.75 162.557C138.466 148.41 125.74 133.033 109.936 135.947C94.1323 138.862 78.0585 147.341 66.4347 172.638Z" stroke="#807F7F" stroke-width="0.5"/>
<path d="M71.5584 171.408C62.2594 191.645 70.1659 210.596 73.8504 220.167C75.9679 222.388 75.921 221.884 76.8085 222.753C77.9178 223.84 83.1378 224.548 85.7537 230.668C88.3696 236.787 89.9846 236.705 88.9318 254.071C87.879 271.436 91.0845 289.949 102.743 306.471C114.402 322.993 132.53 329.708 150.003 332.315C167.475 334.921 187.098 326.038 200.18 285.066C213.263 244.094 259.668 279.708 281.178 261.707C302.688 243.707 293.787 207.257 293.013 191.384C292.239 175.51 267.046 113.214 243.371 82.8669C219.695 52.5194 203.315 73.7075 196.296 86.8613C189.277 100.015 205.228 132.208 206.87 152.655C208.513 173.103 180.158 175.474 161.874 161.327C143.59 147.179 130.863 131.802 115.06 134.717C99.256 137.632 83.1823 146.111 71.5584 171.408Z" stroke="#807F7F" stroke-width="0.5"/>
<path d="M76.6822 170.177C67.3831 190.415 75.2896 209.366 78.9741 218.936C81.0916 221.157 81.0447 220.653 81.9322 221.523C83.0416 222.61 88.2615 223.317 90.8775 229.437C93.4934 235.557 95.1083 235.475 94.0555 252.84C93.0027 270.206 96.2082 288.719 107.867 305.241C119.526 321.763 137.654 328.478 155.127 331.084C172.599 333.691 192.221 324.808 205.304 283.836C218.387 242.863 264.791 278.478 286.302 260.477C307.812 242.476 298.911 206.027 298.137 190.153C297.363 174.28 272.17 111.984 248.494 81.6364C224.819 51.2889 208.439 72.477 201.42 85.6308C194.401 98.7846 210.352 130.977 211.994 151.425C213.636 171.872 185.282 174.244 166.998 160.096C148.714 145.949 135.987 130.572 120.183 133.487C104.38 136.401 88.306 144.88 76.6822 170.177Z" stroke="#807F7F" stroke-width="0.5"/>
<path d="M81.806 168.947C72.5069 189.185 80.4134 208.136 84.0979 217.706C86.2154 219.927 86.1685 219.423 87.056 220.293C88.1653 221.38 93.3853 222.087 96.0012 228.207C98.6172 234.327 100.232 234.245 99.1793 251.61C98.1265 268.976 101.332 287.489 112.991 304.011C124.65 320.533 142.778 327.248 160.25 329.854C177.723 332.461 197.345 323.578 210.428 282.606C223.511 241.633 269.915 277.248 291.426 259.247C312.936 241.246 304.035 204.797 303.261 188.923C302.487 173.05 277.294 110.754 253.618 80.4064C229.943 50.0589 213.563 71.247 206.544 84.4008C199.524 97.5545 215.476 129.747 217.118 150.195C218.76 170.642 190.406 173.014 172.122 158.866C153.837 144.719 141.111 129.342 125.307 132.257C109.504 135.171 93.4298 143.65 81.806 168.947Z" stroke="#807F7F" stroke-width="0.5"/>
<path d="M86.9297 167.717C77.6306 187.954 85.5371 206.906 89.2216 216.476C91.3391 218.697 91.2923 218.193 92.1797 219.062C93.2891 220.15 98.509 220.857 101.125 226.977C103.741 233.096 105.356 233.014 104.303 250.38C103.25 267.746 106.456 286.259 118.115 302.78C129.773 319.302 147.901 326.017 165.374 328.624C182.847 331.23 202.469 322.347 215.552 281.375C228.634 240.403 275.039 276.017 296.549 258.016C318.06 240.016 309.158 203.566 308.384 187.693C307.61 171.819 282.417 109.524 258.742 79.176C235.066 48.8284 218.686 70.0165 211.667 83.1703C204.648 96.3241 220.599 128.517 222.242 148.964C223.884 169.412 195.53 171.783 177.245 157.636C158.961 143.488 146.235 128.111 130.431 131.026C114.627 133.941 98.5536 142.42 86.9297 167.717Z" stroke="#807F7F" stroke-width="0.5"/>
<path d="M92.0535 166.487C82.7544 186.724 90.6609 205.676 94.3454 215.246C96.4629 217.467 96.416 216.963 97.3035 217.832C98.4128 218.919 103.633 219.627 106.249 225.747C108.865 231.866 110.48 231.784 109.427 249.15C108.374 266.515 111.579 285.029 123.238 301.55C134.897 318.072 153.025 324.787 170.498 327.394C187.97 330 207.593 321.117 220.675 280.145C233.758 239.173 280.163 274.787 301.673 256.786C323.183 238.786 314.282 202.336 313.508 186.463C312.734 170.589 287.541 108.293 263.866 77.9459C240.19 47.5984 223.81 68.7865 216.791 81.9403C209.772 95.0941 225.723 127.287 227.365 147.734C229.008 168.182 200.654 170.553 182.369 156.406C164.085 142.258 151.358 126.881 135.555 129.796C119.751 132.711 103.677 141.19 92.0535 166.487Z" stroke="#807F7F" stroke-width="0.5"/>
<path d="M97.1772 165.256C87.8782 185.494 95.7847 204.445 99.4692 214.016C101.587 216.236 101.54 215.732 102.427 216.602C103.537 217.689 108.757 218.397 111.373 224.516C113.988 230.636 115.603 230.554 114.551 247.92C113.498 265.285 116.703 283.798 128.362 300.32C140.021 316.842 158.149 323.557 175.622 326.164C193.094 328.77 212.716 319.887 225.799 278.915C238.882 237.943 285.286 273.557 306.797 255.556C328.307 237.555 319.406 201.106 318.632 185.232C317.858 169.359 292.665 107.063 268.989 76.7157C245.314 46.3682 228.934 67.5563 221.915 80.71C214.896 93.8638 230.847 126.057 232.489 146.504C234.131 166.952 205.777 169.323 187.493 155.176C169.209 141.028 156.482 125.651 140.679 128.566C124.875 131.481 108.801 139.959 97.1772 165.256Z" stroke="#807F7F" stroke-width="0.5"/>
<path d="M102.301 164.026C93.0019 184.264 100.908 203.215 104.593 212.786C106.71 215.006 106.664 214.502 107.551 215.372C108.66 216.459 113.88 217.167 116.496 223.286C119.112 229.406 120.727 229.324 119.674 246.689C118.622 264.055 121.827 282.568 133.486 299.09C145.145 315.612 163.273 322.327 180.745 324.933C198.218 327.54 217.84 318.657 230.923 277.685C244.006 236.712 290.41 272.327 311.921 254.326C333.431 236.325 324.53 199.876 323.756 184.002C322.982 168.129 297.789 105.833 274.113 75.4855C250.438 45.1379 234.058 66.3261 227.039 79.4798C220.019 92.6336 235.971 124.826 237.613 145.274C239.255 165.721 210.901 168.093 192.617 153.945C174.332 139.798 161.606 124.421 145.802 127.336C129.999 130.25 113.925 138.729 102.301 164.026Z" stroke="#807F7F" stroke-width="0.5"/>
<path d="M107.425 162.796C98.1257 183.033 106.032 201.985 109.717 211.555C111.834 213.776 111.787 213.272 112.675 214.142C113.784 215.229 119.004 215.936 121.62 222.056C124.236 228.176 125.851 228.093 124.798 245.459C123.745 262.825 126.951 281.338 138.61 297.86C150.268 314.382 168.397 321.097 185.869 323.703C203.342 326.309 222.964 317.427 236.047 276.454C249.129 235.482 295.534 271.097 317.044 253.096C338.555 235.095 329.653 198.645 328.879 182.772C328.106 166.899 302.912 104.603 279.237 74.2552C255.561 43.9077 239.181 65.0958 232.162 78.2496C225.143 91.4033 241.094 123.596 242.737 144.044C244.379 164.491 216.025 166.863 197.74 152.715C179.456 138.568 166.73 123.191 150.926 126.105C135.122 129.02 119.049 137.499 107.425 162.796Z" stroke="#807F7F" stroke-width="0.5"/>
<path d="M112.549 161.566C103.249 181.803 111.156 200.755 114.84 210.325C116.958 212.546 116.911 212.042 117.799 212.911C118.908 213.999 124.128 214.706 126.744 220.826C129.36 226.945 130.975 226.863 129.922 244.229C128.869 261.595 132.075 280.108 143.733 296.63C155.392 313.151 173.52 319.867 190.993 322.473C208.465 325.079 228.088 316.196 241.17 275.224C254.253 234.252 300.658 269.866 322.168 251.865C343.679 233.865 334.777 197.415 334.003 181.542C333.229 165.668 308.036 103.373 284.361 73.025C260.685 42.6775 244.305 63.8656 237.286 77.0193C230.267 90.1731 246.218 122.366 247.86 142.813C249.503 163.261 221.149 165.633 202.864 151.485C184.58 137.337 171.853 121.96 156.05 124.875C140.246 127.79 124.172 136.269 112.549 161.566Z" stroke="#807F7F" stroke-width="0.5"/>
<path d="M117.672 160.335C108.373 180.573 116.28 199.524 119.964 209.095C122.082 211.315 122.035 210.811 122.922 211.681C124.032 212.768 129.252 213.476 131.868 219.595C134.483 225.715 136.098 225.633 135.046 242.999C133.993 260.364 137.198 278.877 148.857 295.399C160.516 311.921 178.644 318.636 196.117 321.243C213.589 323.849 233.212 314.966 246.294 273.994C259.377 233.022 305.782 268.636 327.292 250.635C348.802 232.634 339.901 196.185 339.127 180.311C338.353 164.438 313.16 102.142 289.484 71.7947C265.809 41.4471 249.429 62.6352 242.41 75.789C235.391 88.9428 251.342 121.136 252.984 141.583C254.627 162.031 226.272 164.402 207.988 150.255C189.704 136.107 176.977 120.73 161.174 123.645C145.37 126.56 129.296 135.038 117.672 160.335Z" stroke="#807F7F" stroke-width="0.5"/>
<path d="M122.796 159.105C113.497 179.343 121.403 198.294 125.088 207.864C127.205 210.085 127.159 209.581 128.046 210.451C129.155 211.538 134.375 212.245 136.991 218.365C139.607 224.485 141.222 224.403 140.169 241.768C139.117 259.134 142.322 277.647 153.981 294.169C165.64 310.691 183.768 317.406 201.24 320.012C218.713 322.619 238.335 313.736 251.418 272.764C264.501 231.791 310.905 267.406 332.416 249.405C353.926 231.404 345.025 194.954 344.251 179.081C343.477 163.208 318.284 100.912 294.608 70.5643C270.933 40.2168 254.553 61.4049 247.534 74.5587C240.515 87.7125 256.466 119.905 258.108 140.353C259.75 160.8 231.396 163.172 213.112 149.024C194.827 134.877 182.101 119.5 166.297 122.415C150.494 125.329 134.42 133.808 122.796 159.105Z" stroke="#807F7F" stroke-width="0.5"/>
<path d="M127.92 157.875C118.621 178.112 126.527 197.064 130.212 206.634C132.329 208.855 132.282 208.351 133.17 209.221C134.279 210.308 139.499 211.015 142.115 217.135C144.731 223.255 146.346 223.172 145.293 240.538C144.24 257.904 147.446 276.417 159.105 292.939C170.764 309.461 188.892 316.176 206.364 318.782C223.837 321.388 243.459 312.506 256.542 271.533C269.624 230.561 316.029 266.175 337.539 248.175C359.05 230.174 350.148 193.724 349.374 177.851C348.601 161.978 323.408 99.6818 299.732 69.3342C276.056 38.9867 259.676 60.1748 252.657 73.3285C245.638 86.4823 261.589 118.675 263.232 139.123C264.874 159.57 236.52 161.942 218.236 147.794C199.951 133.647 187.225 118.27 171.421 121.184C155.617 124.099 139.544 132.578 127.92 157.875Z" stroke="#807F7F" stroke-width="0.5"/>
<path d="M133.044 156.645C123.744 176.882 131.651 195.834 135.336 205.404C137.453 207.625 137.406 207.121 138.294 207.99C139.403 209.078 144.623 209.785 147.239 215.905C149.855 222.024 151.47 221.942 150.417 239.308C149.364 256.674 152.57 275.187 164.228 291.709C175.887 308.23 194.015 314.946 211.488 317.552C228.96 320.158 248.583 311.276 261.666 270.303C274.748 229.331 321.153 264.945 342.663 246.945C364.174 228.944 355.272 192.494 354.498 176.621C353.724 160.747 328.531 98.4516 304.856 68.1041C281.18 37.7565 264.8 58.9446 257.781 72.0984C250.762 85.2522 266.713 117.445 268.355 137.892C269.998 158.34 241.644 160.712 223.359 146.564C205.075 132.416 192.349 117.039 176.545 119.954C160.741 122.869 144.667 131.348 133.044 156.645Z" stroke="#807F7F" stroke-width="0.5"/>
<path d="M138.167 155.414C128.868 175.652 136.775 194.603 140.459 204.174C142.577 206.394 142.53 205.89 143.417 206.76C144.527 207.847 149.747 208.555 152.363 214.674C154.979 220.794 156.594 220.712 155.541 238.077C154.488 255.443 157.693 273.956 169.352 290.478C181.011 307 199.139 313.715 216.612 316.321C234.084 318.928 253.707 310.045 266.789 269.073C279.872 228.1 326.277 263.715 347.787 245.714C369.297 227.713 360.396 191.264 359.622 175.39C358.848 159.517 333.655 97.2211 309.98 66.8735C286.304 36.526 269.924 57.7141 262.905 70.8679C255.886 84.0216 271.837 116.214 273.479 136.662C275.122 157.109 246.767 159.481 228.483 145.333C210.199 131.186 197.472 115.809 181.669 118.724C165.865 121.639 149.791 130.117 138.167 155.414Z" stroke="#807F7F" stroke-width="0.5"/>
<path d="M143.291 154.184C133.992 174.422 141.899 193.373 145.583 202.944C147.701 205.164 147.654 204.66 148.541 205.53C149.65 206.617 154.87 207.325 157.486 213.444C160.102 219.564 161.717 219.482 160.664 236.847C159.612 254.213 162.817 272.726 174.476 289.248C186.135 305.77 204.263 312.485 221.735 315.091C239.208 317.698 258.83 308.815 271.913 267.843C284.996 226.87 331.4 262.485 352.911 244.484C374.421 226.483 365.52 190.034 364.746 174.16C363.972 158.287 338.779 95.9911 315.103 65.6436C291.428 35.296 275.048 56.4841 268.029 69.6379C261.01 82.7917 276.961 114.984 278.603 135.432C280.245 155.88 251.891 158.251 233.607 144.104C215.322 129.956 202.596 114.579 186.792 117.494C170.989 120.409 154.915 128.887 143.291 154.184Z" stroke="#807F7F" stroke-width="0.5"/>
<path d="M148.415 152.954C139.116 173.191 147.022 192.143 150.707 201.713C152.824 203.934 152.777 203.43 153.665 204.3C154.774 205.387 159.994 206.094 162.61 212.214C165.226 218.334 166.841 218.252 165.788 235.617C164.735 252.983 167.941 271.496 179.6 288.018C191.259 304.54 209.387 311.255 226.859 313.861C244.332 316.467 263.954 307.585 277.037 266.612C290.119 225.64 336.524 261.255 358.034 243.254C379.545 225.253 370.643 188.803 369.87 172.93C369.096 157.057 343.903 94.7608 320.227 64.4132C296.552 34.0657 280.171 55.2538 273.152 68.4076C266.133 81.5614 282.084 113.754 283.727 134.202C285.369 154.649 257.015 157.021 238.731 142.873C220.446 128.726 207.72 113.349 191.916 116.263C176.112 119.178 160.039 127.657 148.415 152.954Z" stroke="#807F7F" stroke-width="0.5"/>
<path d="M153.539 151.724C144.24 171.961 152.147 190.913 155.831 200.483C157.949 202.704 157.902 202.2 158.789 203.07C159.899 204.157 165.119 204.864 167.735 210.984C170.351 217.104 171.966 217.021 170.913 234.387C169.86 251.753 173.065 270.266 184.724 286.788C196.383 303.31 214.511 310.025 231.984 312.631C249.456 315.237 269.079 306.355 282.161 265.382C295.244 224.41 341.649 260.024 363.159 242.024C384.669 224.023 375.768 187.573 374.994 171.7C374.22 155.826 349.027 93.5307 325.352 63.1831C301.676 32.8356 285.296 54.0237 278.277 67.1774C271.258 80.3312 287.209 112.524 288.851 132.972C290.494 153.419 262.139 155.791 243.855 141.643C225.571 127.495 212.844 112.118 197.041 115.033C181.237 117.948 165.163 126.427 153.539 151.724Z" stroke="#807F7F" stroke-width="0.5"/>
<path d="M158.663 150.493C149.364 170.731 157.271 189.682 160.955 199.253C163.073 201.473 163.026 200.97 163.913 201.839C165.023 202.926 170.243 203.634 172.858 209.753C175.474 215.873 177.089 215.791 176.037 233.157C174.984 250.522 178.189 269.035 189.848 285.557C201.507 302.079 219.635 308.794 237.108 311.401C254.58 314.007 274.202 305.124 287.285 264.152C300.368 223.18 346.772 258.794 368.283 240.793C389.793 222.792 380.892 186.343 380.118 170.469C379.344 154.596 354.151 92.3003 330.475 61.9528C306.8 31.6052 290.42 52.7933 283.401 65.9471C276.382 79.1009 292.333 111.294 293.975 131.741C295.617 152.189 267.263 154.56 248.979 140.413C230.695 126.265 217.968 110.888 202.164 113.803C186.361 116.718 170.287 125.197 158.663 150.493Z" stroke="#807F7F" stroke-width="0.5"/>
<path d="M163.787 149.263C154.488 169.501 162.394 188.452 166.079 198.023C168.196 200.243 168.149 199.739 169.037 200.609C170.146 201.696 175.366 202.404 177.982 208.523C180.598 214.643 182.213 214.561 181.16 231.927C180.107 249.292 183.313 267.805 194.972 284.327C206.631 300.849 224.759 307.564 242.231 310.17C259.704 312.777 279.326 303.894 292.409 262.922C305.492 221.95 351.896 257.564 373.407 239.563C394.917 221.562 386.016 185.113 385.242 169.239C384.468 153.366 359.275 91.0702 335.599 60.7226C311.924 30.3751 295.544 51.5632 288.524 64.717C281.505 77.8707 297.457 110.064 299.099 130.511C300.741 150.959 272.387 153.33 254.103 139.183C235.818 125.035 223.092 109.658 207.288 112.573C191.485 115.488 175.411 123.966 163.787 149.263Z" stroke="#807F7F" stroke-width="0.5"/>
<path d="M168.911 148.033C159.612 168.27 167.518 187.222 171.203 196.792C173.32 199.013 173.273 198.509 174.161 199.379C175.27 200.466 180.49 201.173 183.106 207.293C185.722 213.413 187.337 213.331 186.284 230.696C185.231 248.062 188.437 266.575 200.096 283.097C211.754 299.619 229.882 306.334 247.355 308.94C264.828 311.546 284.45 302.664 297.533 261.691C310.615 220.719 357.02 256.334 378.53 238.333C400.041 220.332 391.139 183.882 390.365 168.009C389.591 152.136 364.398 89.8398 340.723 59.4923C317.047 29.1447 300.667 50.3329 293.648 63.4866C286.629 76.6404 302.58 108.833 304.223 129.281C305.865 149.728 277.511 152.1 259.226 137.952C240.942 123.805 228.216 108.428 212.412 111.342C196.608 114.257 180.535 122.736 168.911 148.033Z" stroke="#807F7F" stroke-width="0.5"/>
<path d="M174.034 146.803C164.735 167.04 172.642 185.992 176.326 195.562C178.444 197.783 178.397 197.279 179.285 198.149C180.394 199.236 185.614 199.943 188.23 206.063C190.846 212.183 192.461 212.1 191.408 229.466C190.355 246.832 193.56 265.345 205.219 281.867C216.878 298.389 235.006 305.104 252.479 307.71C269.951 310.316 289.574 301.434 302.656 260.461C315.739 219.489 362.144 255.103 383.654 237.103C405.164 219.102 396.263 182.652 395.489 166.779C394.715 150.905 369.522 88.6097 345.847 58.2622C322.171 27.9146 305.791 49.1027 298.772 62.2565C291.753 75.4103 307.704 107.603 309.346 128.051C310.989 148.498 282.635 150.87 264.35 136.722C246.066 122.575 233.339 107.198 217.536 110.112C201.732 113.027 185.658 121.506 174.034 146.803Z" stroke="#807F7F" stroke-width="0.5"/>
<path d="M179.158 145.572C169.859 165.81 177.766 184.761 181.45 194.332C183.568 196.552 183.521 196.049 184.408 196.918C185.518 198.005 190.738 198.713 193.353 204.833C195.969 210.952 197.584 210.87 196.532 228.236C195.479 245.601 198.684 264.114 210.343 280.636C222.002 297.158 240.13 303.873 257.603 306.48C275.075 309.086 294.697 300.203 307.78 259.231C320.863 218.259 367.267 253.873 388.778 235.872C410.288 217.871 401.387 181.422 400.613 165.549C399.839 149.675 374.646 87.3794 350.97 57.0318C327.295 26.6843 310.915 47.8724 303.896 61.0261C296.877 74.1799 312.828 106.373 314.47 126.82C316.112 147.268 287.758 149.639 269.474 135.492C251.19 121.344 238.463 105.967 222.66 108.882C206.856 111.797 190.782 120.276 179.158 145.572Z" stroke="#807F7F" stroke-width="0.5"/>
<path d="M184.282 144.342C174.983 164.58 182.889 183.531 186.574 193.102C188.691 195.322 188.645 194.818 189.532 195.688C190.641 196.775 195.861 197.483 198.477 203.602C201.093 209.722 202.708 209.64 201.655 227.006C200.602 244.371 203.808 262.884 215.467 279.406C227.126 295.928 245.254 302.643 262.726 305.25C280.199 307.856 299.821 298.973 312.904 258.001C325.987 217.029 372.391 252.643 393.902 234.642C415.412 216.641 406.511 180.192 405.737 164.318C404.963 148.445 379.77 86.1492 356.094 55.8017C332.419 25.4541 316.039 46.6422 309.02 59.796C302 72.9498 317.952 105.143 319.594 125.59C321.236 146.038 292.882 148.409 274.598 134.262C256.313 120.114 243.587 104.737 227.783 107.652C211.98 110.567 195.906 119.045 184.282 144.342Z" stroke="#807F7F" stroke-width="0.5"/>
<path d="M189.406 143.112C180.107 163.35 188.013 182.301 191.698 191.871C193.815 194.092 193.768 193.588 194.656 194.458C195.765 195.545 200.985 196.252 203.601 202.372C206.217 208.492 207.832 208.41 206.779 225.775C205.726 243.141 208.932 261.654 220.591 278.176C232.249 294.698 250.378 301.413 267.85 304.019C285.323 306.626 304.945 297.743 318.028 256.771C331.11 215.798 377.515 251.413 399.025 233.412C420.536 215.411 411.634 178.961 410.86 163.088C410.087 147.215 384.893 84.9189 361.218 54.5713C337.542 24.2238 321.162 45.4119 314.143 58.5657C307.124 71.7194 323.075 103.912 324.718 124.36C326.36 144.807 298.006 147.179 279.721 133.031C261.437 118.884 248.711 103.507 232.907 106.422C217.103 109.336 201.03 117.815 189.406 143.112Z" stroke="#807F7F" stroke-width="0.5"/>
<path d="M194.53 141.882C185.23 162.119 193.137 181.07 196.821 190.641C198.939 192.861 198.892 192.358 199.78 193.227C200.889 194.314 206.109 195.022 208.725 201.142C211.341 207.261 212.956 207.179 211.903 224.545C210.85 241.91 214.056 260.423 225.714 276.945C237.373 293.467 255.501 300.182 272.974 302.789C290.446 305.395 310.069 296.512 323.151 255.54C336.234 214.568 382.639 250.182 404.149 232.181C425.66 214.181 416.758 177.731 415.984 161.858C415.21 145.984 390.017 83.6885 366.342 53.3409C342.666 22.9934 326.286 44.1815 319.267 57.3352C312.248 70.489 328.199 102.682 329.841 123.129C331.484 143.577 303.13 145.948 284.845 131.801C266.561 117.653 253.834 102.276 238.031 105.191C222.227 108.106 206.153 116.585 194.53 141.882Z" stroke="#807F7F" stroke-width="0.5"/>
</g>
</svg>
